<?xml version="1.0" encoding="UTF-8"?>
<svg version="1.1" xmlns="http://www.w3.org/2000/svg" width="444" height="142">
<path d="M0 0 C146.52 0 293.04 0 444 0 C444 46.86 444 93.72 444 142 C297.48 142 150.96 142 0 142 C0 95.14 0 48.28 0 0 Z " fill="#010000" transform="translate(0,0)"/>
<path d="M0 0 C0.72590332 0.05309326 1.45180664 0.10618652 2.19970703 0.16088867 C5.89657413 0.56121671 7.67182663 1.0515478 10.35546875 3.6875 C12.04833033 6.49639626 13.05761865 9.15959184 13.9375 12.3125 C14.2675 12.3125 14.5975 12.3125 14.9375 12.3125 C14.97617188 11.28189453 14.97617188 11.28189453 15.015625 10.23046875 C15.10070312 8.87888672 15.10070312 8.87888672 15.1875 7.5 C15.23390625 6.60667969 15.2803125 5.71335937 15.328125 4.79296875 C15.9375 2.3125 15.9375 2.3125 19.9375 -0.6875 C24.8875 -0.6875 29.8375 -0.6875 34.9375 -0.6875 C35.2675 19.7725 35.5975 40.2325 35.9375 61.3125 C40.2275 61.3125 44.5175 61.3125 48.9375 61.3125 C51.12754325 51.04195234 51.74733645 40.76572087 52.4375 30.3125 C53.88415849 8.40140251 53.88415849 8.40140251 55.9375 -0.6875 C59.88849928 -0.7121985 63.83946874 -0.73035923 67.79052734 -0.74243164 C69.79656551 -0.74994036 71.80258202 -0.7626447 73.80859375 -0.77539062 C75.69384766 -0.78022461 75.69384766 -0.78022461 77.6171875 -0.78515625 C78.77976074 -0.79039307 79.94233398 -0.79562988 81.14013672 -0.80102539 C83.9375 -0.6875 83.9375 -0.6875 85.9375 0.3125 C86.32143453 3.20636078 86.57622192 6.02083772 86.75390625 8.9296875 C86.81529282 9.81544464 86.87667938 10.70120178 86.93992615 11.61380005 C87.13557233 14.47117557 87.31777812 17.32924025 87.5 20.1875 C87.62610939 22.04563037 87.75305338 23.9037043 87.88085938 25.76171875 C88.37786365 33.09138266 88.85146738 40.42112228 89.21435547 47.75878906 C89.2571312 48.62247101 89.29990692 49.48615295 89.34397888 50.37600708 C89.42218873 51.99812347 89.49685728 53.62041612 89.567276 55.2428894 C89.74671888 59.03089484 90.12371668 62.61086983 90.9375 66.3125 C91.06313459 70.31773087 90.98155074 74.30388229 90.9375 78.3125 C85.6575 78.3125 80.3775 78.3125 74.9375 78.3125 C73.67512269 75.78774538 73.83893596 74.00049534 73.875 71.1875 C73.88402344 70.27742188 73.89304687 69.36734375 73.90234375 68.4296875 C73.91394531 67.73101562 73.92554688 67.03234375 73.9375 66.3125 C71.9575 66.3125 69.9775 66.3125 67.9375 66.3125 C67.97875 67.55 68.02 68.7875 68.0625 70.0625 C68.18601563 73.767969 67.74318106 74.70113788 65.9375 78.3125 C49.7675 78.3125 33.5975 78.3125 16.9375 78.3125 C15.91515708 74.22312833 15.71485203 70.44477537 15.62109375 66.265625 C15.60031265 65.49442322 15.57953156 64.72322144 15.55812073 63.9286499 C15.49291428 61.47335428 15.43387516 59.01795479 15.375 56.5625 C15.33178726 54.89452065 15.2881721 53.22655168 15.24414062 51.55859375 C15.13726264 47.47666804 15.03591434 43.39463818 14.9375 39.3125 C14.2775 39.3125 13.6175 39.3125 12.9375 39.3125 C12.6075 40.3025 12.2775 41.2925 11.9375 42.3125 C6.14468826 46.06078995 0.94341804 48.4540337 -6.0625 48.3125 C-6.08755615 49.18575928 -6.1126123 50.05901855 -6.13842773 50.95874023 C-6.23337709 54.18852552 -6.33262029 57.41814154 -6.43481445 60.64770508 C-6.47821434 62.04739199 -6.51988564 63.44713359 -6.55981445 64.84692383 C-6.61739445 66.85511495 -6.68164 68.86311149 -6.74609375 70.87109375 C-6.78275146 72.08079834 -6.81940918 73.29050293 -6.85717773 74.53686523 C-7.0625 77.3125 -7.0625 77.3125 -8.0625 78.3125 C-10.55308914 78.41247642 -13.00977395 78.45129627 -15.5 78.4375 C-16.19416016 78.44136719 -16.88832031 78.44523437 -17.60351562 78.44921875 C-22.80922012 78.43913994 -22.80922012 78.43913994 -25.0625 77.3125 C-25.13195668 67.58557263 -25.18528917 57.85870409 -25.21793652 48.1315794 C-25.23360424 43.61505574 -25.25486257 39.09870152 -25.28881836 34.58227539 C-25.32137255 30.22509403 -25.33934468 25.86807582 -25.34713173 21.51078224 C-25.35268235 19.84695682 -25.36352118 18.1831405 -25.37969017 16.51938438 C-25.40141251 14.19200596 -25.40446917 11.86530499 -25.40307617 9.5378418 C-25.413862 8.84732224 -25.42464783 8.15680267 -25.4357605 7.44535828 C-25.41728843 4.60025404 -25.36806964 2.74506211 -23.6999054 0.38362122 C-17.91226464 -3.40240808 -6.73989458 -0.62266826 0 0 Z " fill="#C91C20" transform="translate(100.0625,29.6875)"/>
<path d="M0 0 C2.75059381 -0.08107646 5.49879021 -0.14052813 8.25 -0.1875 C9.02730469 -0.21263672 9.80460938 -0.23777344 10.60546875 -0.26367188 C16.42997175 -0.33834499 16.42997175 -0.33834499 19.546875 1.51171875 C20.02640625 2.00285156 20.5059375 2.49398438 21 3 C21.39331009 2.51202438 21.78662018 2.02404877 22.19184875 1.52128601 C24.56168476 -0.47257284 25.86042605 -0.36377512 28.93041992 -0.34057617 C30.43163643 -0.34023628 30.43163643 -0.34023628 31.96318054 -0.33988953 C33.5804882 -0.31666374 33.5804882 -0.31666374 35.23046875 -0.29296875 C36.33602615 -0.28872391 37.44158356 -0.28447906 38.5806427 -0.28010559 C42.11650812 -0.26329437 45.65180645 -0.22563685 49.1875 -0.1875 C51.58267407 -0.17245636 53.97785706 -0.1587674 56.37304688 -0.14648438 C62.24891688 -0.11338271 68.12436225 -0.06158287 74 0 C74 5.94 74 11.88 74 18 C69.05 18 64.1 18 59 18 C59 20.97 59 23.94 59 27 C63.62 27 68.24 27 73 27 C73 32.61 73 38.22 73 44 C68.38 44 63.76 44 59 44 C59 55.55 59 67.1 59 79 C53.06 79 47.12 79 41 79 C40.67 56.56 40.34 34.12 40 11 C38.02 18.92 36.04 26.84 34 35 C33.34 36.65 32.68 38.3 32 40 C29.70211856 49.03942014 29.65215046 58.11513767 29.609375 67.38671875 C29.58617187 68.45535156 29.56296875 69.52398437 29.5390625 70.625 C29.52673584 72.06746094 29.52673584 72.06746094 29.51416016 73.5390625 C29 76 29 76 27.15039062 77.81323242 C24.28170741 79.39641465 22.13380508 79.3645448 18.875 79.3125 C17.82054687 79.30863281 16.76609375 79.30476563 15.6796875 79.30078125 C13 79 13 79 11 77 C10.74462891 74.27294922 10.74462891 74.27294922 10.7265625 70.8046875 C10.70851562 69.53778076 10.69046875 68.27087402 10.671875 66.96557617 C10.66478516 66.29642181 10.65769531 65.62726746 10.65039062 64.93783569 C11.40326793 46.30541037 11.40326793 46.30541037 5 30 C4.34076339 26.70004987 3.75716133 23.39530898 3.19335938 20.078125 C2.64350931 16.97845212 2.0875551 14.2181032 0.91015625 11.28515625 C-0.10137122 8.74548428 -0.2061228 6.90511395 -0.125 4.1875 C-0.10695312 3.39730469 -0.08890625 2.60710938 -0.0703125 1.79296875 C-0.03550781 0.90544922 -0.03550781 0.90544922 0 0 Z " fill="#C81D20" transform="translate(189,29)"/>
<path d="M0 0 C5.94 0 11.88 0 18 0 C18 8.91 18 17.82 18 27 C19.32 27 20.64 27 22 27 C22 18.09 22 9.18 22 0 C24.784375 -0.020625 27.56875 -0.04125 30.4375 -0.0625 C31.75512329 -0.07615601 31.75512329 -0.07615601 33.09936523 -0.09008789 C35.06645974 -0.09723091 37.03353621 -0.05031893 39 0 C40.68232339 1.68232339 40.12575392 3.75423024 40.13552856 5.99983215 C40.13350433 6.7146727 40.1314801 7.42951324 40.12939453 8.16601562 C40.13114685 8.91558029 40.13289917 9.66514496 40.13470459 10.43742371 C40.1391232 12.92705569 40.1361851 15.41661723 40.1328125 17.90625 C40.13348554 19.62878432 40.13445556 21.35131855 40.13571167 23.07385254 C40.13718865 26.68872988 40.13503407 30.30358255 40.13037109 33.91845703 C40.1246738 38.56266493 40.1279528 43.20681504 40.13394356 47.85102081 C40.13754916 51.40936726 40.13641059 54.9676999 40.13381577 58.52604675 C40.13314649 60.23894762 40.13397493 61.95184972 40.13629532 63.66474915 C40.13882183 66.05452822 40.1349813 68.44421241 40.12939453 70.83398438 C40.13141876 71.54882492 40.13344299 72.26366547 40.13552856 73.00016785 C40.11426269 77.88573731 40.11426269 77.88573731 39 79 C36.3226862 79.09981214 33.67695825 79.13879875 31 79.125 C29.87464844 79.13080078 29.87464844 79.13080078 28.7265625 79.13671875 C23.12661053 79.12661053 23.12661053 79.12661053 22 78 C21.91156207 75.55169574 21.88471248 73.13179401 21.90234375 70.68359375 C21.9037587 69.95253922 21.90517365 69.22148468 21.90663147 68.46827698 C21.91224592 66.12464368 21.92480078 63.78110461 21.9375 61.4375 C21.94251314 59.85221492 21.94707637 58.26692834 21.95117188 56.68164062 C21.96222003 52.7877239 21.97949428 48.89387795 22 45 C20.68 45 19.36 45 18 45 C18 56.22 18 67.44 18 79 C12.06 79 6.12 79 0 79 C0 52.93 0 26.86 0 0 Z " fill="#F1EAE9" transform="translate(325,29)"/>
<path d="M0 0 C5.38550234 5.38550234 6 13.8163131 6 21 C0.39 21 -5.22 21 -11 21 C-11 18.69 -11 16.38 -11 14 C-12.65 14 -14.3 14 -16 14 C-15.67 16.31 -15.34 18.62 -15 21 C-13.68 21.33 -12.36 21.66 -11 22 C-11 22.66 -11 23.32 -11 24 C-10.43152344 24.0721875 -9.86304688 24.144375 -9.27734375 24.21875 C-4.32641926 25.91718036 -1.18931596 31.04456722 2 35 C2.55945313 35.68191406 3.11890625 36.36382812 3.6953125 37.06640625 C8.50426535 44.08747742 8.01167976 52.84875168 7 61 C5.78902704 66.32828101 3.80594158 69.70515847 -0.5625 73 C-6.84277863 76.6539803 -12.69482839 76.96421105 -19.73828125 75.38671875 C-24.41741082 73.8131448 -27.27090926 72.42967968 -29.5625 67.9375 C-30.08270607 66.64071837 -30.56634703 65.32823268 -31 64 C-31.33 63.01 -31.66 62.02 -32 61 C-32.07051114 58.26134713 -32.09357765 55.54972412 -32.0625 52.8125 C-32.05798828 52.06291016 -32.05347656 51.31332031 -32.04882812 50.54101562 C-32.03706354 48.69397617 -32.01912865 46.84697787 -32 45 C-29.72942623 44.94601013 -27.45848712 44.90721258 -25.1875 44.875 C-23.92292969 44.85179687 -22.65835937 44.82859375 -21.35546875 44.8046875 C-18 45 -18 45 -15 47 C-14.48828125 49.6015625 -14.48828125 49.6015625 -14.3125 52.625 C-14.21388672 54.12933594 -14.21388672 54.12933594 -14.11328125 55.6640625 C-14.07589844 56.43492188 -14.03851563 57.20578125 -14 58 C-12.515 58.495 -12.515 58.495 -11 59 C-11.31045732 57.0830014 -11.62344671 55.16641277 -11.9375 53.25 C-12.11152344 52.18265625 -12.28554688 51.1153125 -12.46484375 50.015625 C-12.64144531 49.02046875 -12.81804687 48.0253125 -13 47 C-13.13277344 46.23945312 -13.26554687 45.47890625 -13.40234375 44.6953125 C-14.41667435 41.81806099 -17.34889308 41.27645889 -20 40 C-26.05232219 36.0227597 -29.98077621 30.9868717 -32 24 C-32.38790868 21.24542825 -32.52203958 18.52998137 -32.5625 15.75 C-32.57724365 15.07662598 -32.5919873 14.40325195 -32.60717773 13.70947266 C-32.50409933 8.71603367 -31.0817004 5.85779039 -28 2 C-19.9838291 -5.23410544 -9.360174 -4.50675044 0 0 Z " fill="#ECE7E7" transform="translate(316,32)"/>
<path d="M0 0 C10.89 0 21.78 0 33 0 C33 5.61 33 11.22 33 17 C28.05 17 23.1 17 18 17 C18 19.97 18 22.94 18 26 C22.62 26 27.24 26 32 26 C32 31.61 32 37.22 32 43 C27.38 43 22.76 43 18 43 C18 54.55 18 66.1 18 78 C12.06 78 6.12 78 0 78 C0 52.26 0 26.52 0 0 Z " fill="#EBE6E6" transform="translate(230,30)"/>
<path d="M0 0 C16 0 16 0 18 1 C18 26.41 18 51.82 18 78 C12.6251615 80.68741925 6.00925213 79 0 79 C0 52.93 0 26.86 0 0 Z " fill="#F4EDED" transform="translate(264,29)"/>
<path d="M0 0 C4.95 0 9.9 0 15 0 C15.33 20.46 15.66 40.92 16 62 C20.29 62 24.58 62 29 62 C31.19004325 51.72945234 31.80983645 41.45322087 32.5 31 C33.94665849 9.08890251 33.94665849 9.08890251 36 0 C39.95099928 -0.0246985 43.90196874 -0.04285923 47.85302734 -0.05493164 C49.85906551 -0.06244036 51.86508202 -0.0751447 53.87109375 -0.08789062 C55.75634766 -0.09272461 55.75634766 -0.09272461 57.6796875 -0.09765625 C59.42354736 -0.10551147 59.42354736 -0.10551147 61.20263672 -0.11352539 C64 0 64 0 66 1 C66.38393453 3.89386078 66.63872192 6.70833772 66.81640625 9.6171875 C66.87779282 10.50294464 66.93917938 11.38870178 67.00242615 12.30130005 C67.19807233 15.15867557 67.38027812 18.01674025 67.5625 20.875 C67.68860939 22.73313037 67.81555338 24.5912043 67.94335938 26.44921875 C68.44036365 33.77888266 68.91396738 41.10862228 69.27685547 48.44628906 C69.3196312 49.30997101 69.36240692 50.17365295 69.40647888 51.06350708 C69.48468873 52.68562347 69.55935728 54.30791612 69.629776 55.9303894 C69.80921888 59.71839484 70.18621668 63.29836983 71 67 C71.12563459 71.00523087 71.04405074 74.99138229 71 79 C65.72 79 60.44 79 55 79 C53.39274365 75.78548731 53.94251815 72.56387464 54 69 C55.20628008 71.33214148 56.1654738 73.49642139 57 76 C60.63 76 64.26 76 68 76 C67.56866306 55.46540408 67.56866306 55.46540408 65.47265625 35.0546875 C64.62273826 28.65119583 64.54506851 22.16310495 64.34179688 15.71337891 C64.29442383 14.30064697 64.29442383 14.30064697 64.24609375 12.859375 C64.22216553 12.01858398 64.1982373 11.17779297 64.17358398 10.31152344 C64.00327388 8.04359653 63.81313857 6.12780612 63 4 C60.05868109 3.01956036 58.17498335 2.88378798 55.11328125 2.90234375 C54.17548828 2.90556641 53.23769531 2.90878906 52.27148438 2.91210938 C50.80678711 2.92467773 50.80678711 2.92467773 49.3125 2.9375 C47.83040039 2.94426758 47.83040039 2.94426758 46.31835938 2.95117188 C43.87884526 2.96295697 41.43945311 2.97940989 39 3 C36.57155425 16.05179207 35.36301934 29.2067306 34.5 42.4453125 C34.41621094 43.71632812 34.33242187 44.98734375 34.24609375 46.296875 C34.08357362 48.82496598 33.9297559 51.35363324 33.78515625 53.8828125 C33.71167969 55.0378125 33.63820312 56.1928125 33.5625 57.3828125 C33.47162109 58.93572998 33.47162109 58.93572998 33.37890625 60.52001953 C33 63 33 63 31 65 C28.0906442 65.14517744 25.280054 65.18630796 22.375 65.125 C21.57320312 65.11597656 20.77140625 65.10695313 19.9453125 65.09765625 C17.96341477 65.07406223 15.98167019 65.03819065 14 65 C11.96076229 61.62174514 11.75621798 59.04499178 11.77294922 55.12988281 C11.77317581 53.35849945 11.77317581 53.35849945 11.77340698 51.55133057 C11.78372955 50.28142273 11.79405212 49.01151489 11.8046875 47.703125 C11.8075174 46.39921814 11.81034729 45.09531128 11.81326294 43.75189209 C11.82088279 40.2929105 11.84051692 36.83409807 11.8626709 33.37518311 C11.88316497 29.84259326 11.89227226 26.30997597 11.90234375 22.77734375 C11.92376454 15.8514862 11.95893314 8.92576864 12 2 C8.04 1.67 4.08 1.34 0 1 C0 0.67 0 0.34 0 0 Z " fill="#952728" transform="translate(120,29)"/>
<path d="M0 0 C2.75059381 -0.08107646 5.49879021 -0.14052813 8.25 -0.1875 C9.02730469 -0.21263672 9.80460938 -0.23777344 10.60546875 -0.26367188 C16.42997175 -0.33834499 16.42997175 -0.33834499 19.546875 1.51171875 C20.02640625 2.00285156 20.5059375 2.49398438 21 3 C21.39331009 2.51202438 21.78662018 2.02404877 22.19184875 1.52128601 C24.56168476 -0.47257284 25.86042605 -0.36377512 28.93041992 -0.34057617 C30.43163643 -0.34023628 30.43163643 -0.34023628 31.96318054 -0.33988953 C33.5804882 -0.31666374 33.5804882 -0.31666374 35.23046875 -0.29296875 C36.33602615 -0.28872391 37.44158356 -0.28447906 38.5806427 -0.28010559 C42.11650812 -0.26329437 45.65180645 -0.22563685 49.1875 -0.1875 C51.58267407 -0.17245636 53.97785706 -0.1587674 56.37304688 -0.14648438 C62.24889185 -0.11338285 68.12440542 -0.06315893 74 0 C74 0.33 74 0.66 74 1 C63.11 1 52.22 1 41 1 C41 4.3 41 7.6 41 11 C40.34 11.99 39.68 12.98 39 14 C38.53547711 15.55407172 38.13551441 17.12808655 37.78125 18.7109375 C37.57113281 19.62617187 37.36101562 20.54140625 37.14453125 21.484375 C36.93183594 22.43828125 36.71914062 23.3921875 36.5 24.375 C36.07656668 26.25863672 35.64959109 28.14148133 35.21875 30.0234375 C35.03248047 30.85794434 34.84621094 31.69245117 34.65429688 32.55224609 C34 35 34 35 32.99267578 37.49853516 C29.24937151 46.9313673 29.65541022 57.40858377 29.609375 67.38671875 C29.58617187 68.45535156 29.56296875 69.52398437 29.5390625 70.625 C29.52673584 72.06746094 29.52673584 72.06746094 29.51416016 73.5390625 C29 76 29 76 27.15039062 77.81323242 C24.28170741 79.39641465 22.13380508 79.3645448 18.875 79.3125 C17.82054687 79.30863281 16.76609375 79.30476563 15.6796875 79.30078125 C13 79 13 79 11 77 C10.74462891 74.27294922 10.74462891 74.27294922 10.7265625 70.8046875 C10.70851562 69.53778076 10.69046875 68.27087402 10.671875 66.96557617 C10.66478516 66.29642181 10.65769531 65.62726746 10.65039062 64.93783569 C11.40326793 46.30541037 11.40326793 46.30541037 5 30 C4.34076339 26.70004987 3.75716133 23.39530898 3.19335938 20.078125 C2.64350931 16.97845212 2.0875551 14.2181032 0.91015625 11.28515625 C-0.10137122 8.74548428 -0.2061228 6.90511395 -0.125 4.1875 C-0.10695312 3.39730469 -0.08890625 2.60710938 -0.0703125 1.79296875 C-0.03550781 0.90544922 -0.03550781 0.90544922 0 0 Z M2 3 C2.28647533 5.33954855 2.63049535 7.67212073 3 10 C3.17030487 11.45791294 3.33704029 12.91624779 3.5 14.375 C3.60095071 17.80223661 3.60095071 17.80223661 5 19 C5.3261241 20.66026814 5.61039698 22.32882303 5.875 24 C6.49938555 27.62050425 7.24585705 30.98543986 8.5 34.4375 C11.98949653 44.51826776 12.31571377 54.86228917 12.57080078 65.43432617 C12.61309814 66.81261597 12.61309814 66.81261597 12.65625 68.21875 C12.67494141 69.04310547 12.69363281 69.86746094 12.71289062 70.71679688 C12.9214749 73.39649166 12.9214749 73.39649166 15 77 C18.96 77 22.92 77 27 77 C27.04898438 75.23914063 27.09796875 73.47828125 27.1484375 71.6640625 C27.22352128 69.31769431 27.29906664 66.97134085 27.375 64.625 C27.4059375 63.46871094 27.436875 62.31242187 27.46875 61.12109375 C27.67827336 54.94015453 28.19552266 49.11854061 29.54980469 43.08203125 C30.24912023 39.84788648 30.38975257 36.61934499 30.55859375 33.32421875 C31 31 31 31 32.4296875 28.765625 C34.57539524 24.98661734 35.05106917 21.322761 35.6875 17.0625 C35.81705078 16.27681641 35.94660156 15.49113281 36.08007812 14.68164062 C36.77135012 10.31089973 37 6.50148984 37 2 C33.04 2 29.08 2 25 2 C24.38125 3.794375 23.7625 5.58875 23.125 7.4375 C21.25 12.875 21.25 12.875 19 14 C18.67 10.37 18.34 6.74 18 3 C9.53246676 1.18090366 9.53246676 1.18090366 2 3 Z " fill="#9A2629" transform="translate(189,29)"/>
<path d="M0 0 C0.33 0 0.66 0 1 0 C1 25.41 1 50.82 1 77 C0.67 77 0.34 77 0 77 C-0.33 74.03 -0.66 71.06 -1 68 C-1.66 68 -2.32 68 -3 68 C-2.76410156 67.01773438 -2.76410156 67.01773438 -2.5234375 66.015625 C-0.9803661 57.12569128 -0.18240147 46.59537384 -5.4296875 38.859375 C-7.63205977 36.25159092 -9.9343459 33.81636541 -12.44921875 31.5078125 C-14 30 -14 30 -16 27 C-16.99 26.67 -17.98 26.34 -19 26 C-19.33 25.34 -19.66 24.68 -20 24 C-20.99 23.67 -21.98 23.34 -23 23 C-23.33 20.69 -23.66 18.38 -24 16 C-22.35 16 -20.7 16 -19 16 C-19 18.31 -19 20.62 -19 23 C-13.39 23 -7.78 23 -2 23 C-2.28875 20.9375 -2.5775 18.875 -2.875 16.75 C-3.03742188 15.58984375 -3.19984375 14.4296875 -3.3671875 13.234375 C-3.91820431 10.41806687 -4.55796482 8.44782443 -6 6 C-4.0625 7.125 -4.0625 7.125 -2 9 C-1.67 10.98 -1.34 12.96 -1 15 C-0.67 10.05 -0.34 5.1 0 0 Z " fill="#0A0808" transform="translate(324,30)"/>
<path d="M0 0 C0.33 0 0.66 0 1 0 C1.07476562 1.31613281 1.14953125 2.63226563 1.2265625 3.98828125 C2.02927565 15.51467187 3.01359249 25.78554571 12 34.0625 C14.97038075 35.9808709 17.58874708 37.10657662 21 38 C21.144375 38.763125 21.28875 39.52625 21.4375 40.3125 C21.9632594 43.08172908 21.9632594 43.08172908 23 46 C23.06740865 47.56118428 23.08514456 49.1250252 23.0625 50.6875 C23.05347656 51.49574219 23.04445313 52.30398437 23.03515625 53.13671875 C23.02355469 53.75160156 23.01195312 54.36648437 23 55 C21.68 54.67 20.36 54.34 19 54 C18.95101563 53.21753906 18.90203125 52.43507812 18.8515625 51.62890625 C18.77679688 50.61699219 18.70203125 49.60507813 18.625 48.5625 C18.55539062 47.55316406 18.48578125 46.54382813 18.4140625 45.50390625 C18.27742188 44.67761719 18.14078125 43.85132813 18 43 C15.0384304 41.5192152 12.16493705 41.64685963 8.875 41.4375 C7.59367187 41.35371094 6.31234375 41.26992187 4.9921875 41.18359375 C3.51105469 41.09271484 3.51105469 41.09271484 2 41 C2.31328058 49.80426458 2.61045808 57.74720228 6 66 C5.34 66 4.68 66 4 66 C4 65.34 4 64.68 4 64 C3.34 64 2.68 64 2 64 C1.67 66.31 1.34 68.62 1 71 C0.67 71 0.34 71 0 71 C0 47.57 0 24.14 0 0 Z " fill="#37302C" transform="translate(282,36)"/>
<path d="M0 0 C0.72590332 0.05309326 1.45180664 0.10618652 2.19970703 0.16088867 C5.95793456 0.56786133 7.7043672 1.08625604 10.44921875 3.75 C11.9375 6.3125 11.9375 6.3125 11.6875 8.625 C11.44 9.181875 11.1925 9.73875 10.9375 10.3125 C9 9.5625 9 9.5625 6.9375 8.3125 C6.81375 7.6525 6.69 6.9925 6.5625 6.3125 C6.35625 5.6525 6.15 4.9925 5.9375 4.3125 C-2.64502676 1.10029356 -2.64502676 1.10029356 -23.0625 2.3125 C-23.0625 26.4025 -23.0625 50.4925 -23.0625 75.3125 C-19.1025 75.3125 -15.1425 75.3125 -11.0625 75.3125 C-9.362529 73.612529 -9.85309644 71.39729637 -9.78125 69.0703125 C-9.74386719 68.00425781 -9.70648438 66.93820313 -9.66796875 65.83984375 C-9.63316406 64.71707031 -9.59835938 63.59429687 -9.5625 62.4375 C-9.49364657 60.23164026 -9.42090557 58.02589746 -9.34375 55.8203125 C-9.29831055 54.34522217 -9.29831055 54.34522217 -9.25195312 52.84033203 C-9.0625 50.3125 -9.0625 50.3125 -8.0625 47.3125 C-5.10585481 45.8341774 -2.32020263 46.25217217 0.9375 46.3125 C-1.0625 48.3125 -1.0625 48.3125 -3.6875 48.4375 C-4.47125 48.39625 -5.255 48.355 -6.0625 48.3125 C-6.08755615 49.18575928 -6.1126123 50.05901855 -6.13842773 50.95874023 C-6.23337709 54.18852552 -6.33262029 57.41814154 -6.43481445 60.64770508 C-6.47821434 62.04739199 -6.51988564 63.44713359 -6.55981445 64.84692383 C-6.61739445 66.85511495 -6.68164 68.86311149 -6.74609375 70.87109375 C-6.78275146 72.08079834 -6.81940918 73.29050293 -6.85717773 74.53686523 C-7.0625 77.3125 -7.0625 77.3125 -8.0625 78.3125 C-10.55308914 78.41247642 -13.00977395 78.45129627 -15.5 78.4375 C-16.19416016 78.44136719 -16.88832031 78.44523437 -17.60351562 78.44921875 C-22.80922012 78.43913994 -22.80922012 78.43913994 -25.0625 77.3125 C-25.13195668 67.58557263 -25.18528917 57.85870409 -25.21793652 48.1315794 C-25.23360424 43.61505574 -25.25486257 39.09870152 -25.28881836 34.58227539 C-25.32137255 30.22509403 -25.33934468 25.86807582 -25.34713173 21.51078224 C-25.35268235 19.84695682 -25.36352118 18.1831405 -25.37969017 16.51938438 C-25.40141251 14.19200596 -25.40446917 11.86530499 -25.40307617 9.5378418 C-25.413862 8.84732224 -25.42464783 8.15680267 -25.4357605 7.44535828 C-25.41728843 4.60025404 -25.36806964 2.74506211 -23.6999054 0.38362122 C-17.91226464 -3.40240808 -6.73989458 -0.62266826 0 0 Z " fill="#97282A" transform="translate(100.0625,29.6875)"/>
<path d="M0 0 C5.94 0 11.88 0 18 0 C18 8.91 18 17.82 18 27 C19.32 27 20.64 27 22 27 C22 18.09 22 9.18 22 0 C27.61 0 33.22 0 39 0 C39 0.33 39 0.66 39 1 C38.14535156 1.06058594 37.29070312 1.12117188 36.41015625 1.18359375 C34.75306641 1.30927734 34.75306641 1.30927734 33.0625 1.4375 C31.96035156 1.51871094 30.85820312 1.59992187 29.72265625 1.68359375 C27.08890097 1.70418084 27.08890097 1.70418084 26 3 C25.85465348 4.68253584 25.77282378 6.37065758 25.71875 8.05859375 C25.68136719 9.08404297 25.64398438 10.10949219 25.60546875 11.16601562 C25.57066406 12.24560547 25.53585937 13.32519531 25.5 14.4375 C25.43128385 16.56133798 25.35856667 18.68505147 25.28125 20.80859375 C25.23581055 22.22869751 25.23581055 22.22869751 25.18945312 23.67749023 C25 26 25 26 24 28 C20.5625 28.75 20.5625 28.75 17 29 C14.23776722 26.23776722 14.42143709 23.79293383 14 20 C13.67 20 13.34 20 13 20 C12.94581674 17.91695462 12.90712449 15.83350232 12.875 13.75 C12.85179687 12.58984375 12.82859375 11.4296875 12.8046875 10.234375 C12.9896051 7.17213954 13.39176977 5.55797249 15 3 C15.66 3 16.32 3 17 3 C17 2.34 17 1.68 17 1 C11.72 1 6.44 1 1 1 C1 26.41 1 51.82 1 78 C6.61 78 12.22 78 18 78 C18 78.33 18 78.66 18 79 C12.06 79 6.12 79 0 79 C0 52.93 0 26.86 0 0 Z " fill="#B8B2AE" transform="translate(325,29)"/>
<path d="M0 0 C5.28 0 10.56 0 16 0 C16 0.33 16 0.66 16 1 C11.05 1 6.1 1 1 1 C1.33 15.19 1.66 29.38 2 44 C2.99 43.505 2.99 43.505 4 43 C4 53.89 4 64.78 4 76 C8.29 76.33 12.58 76.66 17 77 C17 51.92 17 26.84 17 1 C17.33 1 17.66 1 18 1 C18 26.41 18 51.82 18 78 C12.6251615 80.68741925 6.00925213 79 0 79 C0 52.93 0 26.86 0 0 Z " fill="#AEB0B3" transform="translate(264,29)"/>
<path d="M0 0 C0.33 0 0.66 0 1 0 C0.99476318 1.02472412 0.98952637 2.04944824 0.98413086 3.10522461 C0.96608031 6.89395276 0.9545678 10.68267709 0.94506836 14.47143555 C0.94002826 16.11369464 0.93319622 17.75594923 0.92456055 19.39819336 C0.91248074 21.75375479 0.90676861 24.10925709 0.90234375 26.46484375 C0.89718246 27.20339096 0.89202118 27.94193817 0.88670349 28.7028656 C0.8865075 30.46898088 0.93805281 32.23497146 1 34 C1.33 34.33 1.66 34.66 2 35 C2.16010481 37.73701178 2.25946828 40.4516759 2.31640625 43.19140625 C2.33718735 44.01124496 2.35796844 44.83108368 2.37937927 45.67576599 C2.44496494 48.30458901 2.50380126 50.93351504 2.5625 53.5625 C2.60567667 55.34050561 2.64929067 57.11850065 2.69335938 58.89648438 C2.80065543 63.26421634 2.90189704 67.63205227 3 72 C7.87716302 73.27096493 12.67570656 73.12655874 17.67578125 73.09765625 C19.06351997 73.09553383 19.06351997 73.09553383 20.47929382 73.09336853 C23.42372927 73.08778715 26.36808767 73.07523805 29.3125 73.0625 C31.31314994 73.05748259 33.31380108 73.05292011 35.31445312 73.04882812 C40.20966494 73.03782381 45.10481942 73.02057198 50 73 C50.33 70.03 50.66 67.06 51 64 C51.33 64 51.66 64 52 64 C52.25 71.5 52.25 71.5 50 76 C33.83 76 17.66 76 1 76 C-0.02234292 71.91062833 -0.22264797 68.13227537 -0.31640625 63.953125 C-0.3475779 62.79632233 -0.3475779 62.79632233 -0.37937927 61.6161499 C-0.44458572 59.16085428 -0.50362484 56.70545479 -0.5625 54.25 C-0.60571274 52.58202065 -0.6493279 50.91405168 -0.69335938 49.24609375 C-0.80023736 45.16416804 -0.90158566 41.08213818 -1 37 C-1.99 37 -2.98 37 -4 37 C-3.67 36.01 -3.34 35.02 -3 34 C-2.91760831 32.15389468 -2.89256641 30.30494836 -2.90234375 28.45703125 C-2.90556641 27.38388672 -2.90878906 26.31074219 -2.91210938 25.20507812 C-2.92048828 24.08552734 -2.92886719 22.96597656 -2.9375 21.8125 C-2.94426758 20.11577148 -2.94426758 20.11577148 -2.95117188 18.38476562 C-2.96296502 15.58979073 -2.9794235 12.7949218 -3 10 C-2.34 10 -1.68 10 -1 10 C-0.67 6.7 -0.34 3.4 0 0 Z " fill="#892325" transform="translate(116,32)"/>
<path d="M0 0 C2.75059381 -0.08107646 5.49879021 -0.14052813 8.25 -0.1875 C9.02730469 -0.21263672 9.80460938 -0.23777344 10.60546875 -0.26367188 C16.42997175 -0.33834499 16.42997175 -0.33834499 19.546875 1.51171875 C20.02640625 2.00285156 20.5059375 2.49398438 21 3 C21.66 2.34 22.32 1.68 23 1 C22.67 4.96 22.34 8.92 22 13 C21.01 13.33 20.02 13.66 19 14 C17.73913486 10.05979642 18 7.52419701 18 3 C13.05 3 8.1 3 3 3 C3.33 5.31 3.66 7.62 4 10 C4.1709516 11.45783725 4.33853863 12.91608118 4.5 14.375 C4.60095071 17.80223661 4.60095071 17.80223661 6 19 C6.3261241 20.66026814 6.61039698 22.32882303 6.875 24 C7.49938555 27.62050425 8.24585705 30.98543986 9.5 34.4375 C12.99702448 44.54001516 13.31446305 54.93064222 13.65869141 65.5222168 C13.6901123 66.44429932 13.7215332 67.36638184 13.75390625 68.31640625 C13.77783447 69.14599854 13.8017627 69.97559082 13.82641602 70.83032227 C13.92731433 73.18121527 13.92731433 73.18121527 15 76 C18.96 76.33 22.92 76.66 27 77 C25 79 25 79 22.25 79.265625 C21.1775 79.26046875 20.105 79.2553125 19 79.25 C17.39125 79.25773437 17.39125 79.25773437 15.75 79.265625 C13 79 13 79 11 77 C10.74462891 74.27294922 10.74462891 74.27294922 10.7265625 70.8046875 C10.70851562 69.53778076 10.69046875 68.27087402 10.671875 66.96557617 C10.66478516 66.29642181 10.65769531 65.62726746 10.65039062 64.93783569 C11.40326793 46.30541037 11.40326793 46.30541037 5 30 C4.34076339 26.70004987 3.75716133 23.39530898 3.19335938 20.078125 C2.64350931 16.97845212 2.0875551 14.2181032 0.91015625 11.28515625 C-0.10137122 8.74548428 -0.2061228 6.90511395 -0.125 4.1875 C-0.10695312 3.39730469 -0.08890625 2.60710938 -0.0703125 1.79296875 C-0.03550781 0.90544922 -0.03550781 0.90544922 0 0 Z " fill="#872525" transform="translate(189,29)"/>
<path d="M0 0 C0.33 0 0.66 0 1 0 C1 15.18 1 30.36 1 46 C0.67 45.34 0.34 44.68 0 44 C-4.62 44 -9.24 44 -14 44 C-14 48.62 -14 53.24 -14 58 C-14.33 58 -14.66 58 -15 58 C-15 53.05 -15 48.1 -15 43 C-10.38 43 -5.76 43 -1 43 C-1 37.39 -1 31.78 -1 26 C-5.62 26 -10.24 26 -15 26 C-15 23.03 -15 20.06 -15 17 C-10.05 17 -5.1 17 0 17 C0 11.39 0 5.78 0 0 Z " fill="#3D3938" transform="translate(263,30)"/>
<path d="M0 0 C0.33 0 0.66 0 1 0 C1.03738281 0.6290625 1.07476562 1.258125 1.11328125 1.90625 C1.17902344 2.7621875 1.24476563 3.618125 1.3125 4.5 C1.37050781 5.3353125 1.42851562 6.170625 1.48828125 7.03125 C1.90414014 10.15764442 1.90414014 10.15764442 3.51367188 13.43945312 C5.5832965 18.87882687 5.37588149 24.18500051 5.29296875 29.9375 C5.28872391 31.05817871 5.28447906 32.17885742 5.28010559 33.33349609 C5.26340311 36.88924874 5.22576568 40.44442059 5.1875 44 C5.17244231 46.42056469 5.1587558 48.84113833 5.14648438 51.26171875 C5.1135272 57.17467508 5.06341202 63.08729603 5 69 C4.67 69 4.34 69 4 69 C3.93941406 67.70964844 3.87882812 66.41929688 3.81640625 65.08984375 C3.73194119 63.37238745 3.64729623 61.65493998 3.5625 59.9375 C3.52318359 59.08994141 3.48386719 58.24238281 3.44335938 57.36914062 C3.19996611 52.51999791 2.77401958 47.79371788 2 43 C1.34 43.99 0.68 44.98 0 46 C0 30.82 0 15.64 0 0 Z " fill="#E5E9F0" transform="translate(265,30)"/>
<path d="M0 0 C0.33 0 0.66 0 1 0 C1 25.41 1 50.82 1 77 C0.67 77 0.34 77 0 77 C-0.33 74.03 -0.66 71.06 -1 68 C-1.66 68 -2.32 68 -3 68 C-2.84660156 67.32839844 -2.69320313 66.65679687 -2.53515625 65.96484375 C-1.91035584 62.50335829 -1.63904382 59.06820367 -1.4375 55.5625 C-1.37381226 54.48367554 -1.37381226 54.48367554 -1.30883789 53.38305664 C-0.79536238 43.59602753 -0.91828561 33.79664734 -1 24 C-6.61 24 -12.22 24 -18 24 C-18.33 24.66 -18.66 25.32 -19 26 C-19.33 25.34 -19.66 24.68 -20 24 C-20.99 23.67 -21.98 23.34 -23 23 C-23.33 20.69 -23.66 18.38 -24 16 C-22.35 16 -20.7 16 -19 16 C-19 18.31 -19 20.62 -19 23 C-13.39 23 -7.78 23 -2 23 C-2.28875 20.9375 -2.5775 18.875 -2.875 16.75 C-3.03742188 15.58984375 -3.19984375 14.4296875 -3.3671875 13.234375 C-3.91820431 10.41806687 -4.55796482 8.44782443 -6 6 C-4.0625 7.125 -4.0625 7.125 -2 9 C-1.67 10.98 -1.34 12.96 -1 15 C-0.67 10.05 -0.34 5.1 0 0 Z " fill="#2B2D2F" transform="translate(324,30)"/>
<path d="M0 0 C2.475 0.495 2.475 0.495 5 1 C6.02137457 2.65365406 7.01612294 4.32376502 8 6 C10.05557661 7.90406997 12.18121427 9.68239214 14.35546875 11.44921875 C14.89816406 11.96097656 15.44085938 12.47273438 16 13 C16 13.66 16 14.32 16 15 C10.72 15 5.44 15 0 15 C0 10.05 0 5.1 0 0 Z " fill="#070607" transform="translate(283,61)"/>
<path d="M0 0 C1.32 0 2.64 0 4 0 C4.33 11.22 4.66 22.44 5 34 C4.34 34 3.68 34 3 34 C2.67 33.34 2.34 32.68 2 32 C1.01 32.495 1.01 32.495 0 33 C0 22.11 0 11.22 0 0 Z " fill="#100F0E" transform="translate(343,74)"/>
<path d="M0 0 C4.62 0 9.24 0 14 0 C14 2.64 14 5.28 14 8 C9.38 8 4.76 8 0 8 C0 5.36 0 2.72 0 0 Z " fill="#040202" transform="translate(249,48)"/>
<path d="M0 0 C0.99 0.33 1.98 0.66 3 1 C3 9.91 3 18.82 3 28 C1.68 28 0.36 28 -1 28 C-1.02886338 23.52084672 -1.04675187 19.04171709 -1.0625 14.5625 C-1.07087891 13.28310547 -1.07925781 12.00371094 -1.08789062 10.68554688 C-1.09111328 9.47060547 -1.09433594 8.25566406 -1.09765625 7.00390625 C-1.10289307 5.87799072 -1.10812988 4.7520752 -1.11352539 3.59204102 C-1 1 -1 1 0 0 Z " fill="#0F0C0C" transform="translate(344,28)"/>
<path d="M0 0 C5.61 0 11.22 0 17 0 C17 0.33 17 0.66 17 1 C15.71802734 1.09087891 15.71802734 1.09087891 14.41015625 1.18359375 C12.75306641 1.30927734 12.75306641 1.30927734 11.0625 1.4375 C9.96035156 1.51871094 8.85820312 1.59992187 7.72265625 1.68359375 C5.08890097 1.70418084 5.08890097 1.70418084 4 3 C3.85465348 4.68253584 3.77282378 6.37065758 3.71875 8.05859375 C3.66267578 9.59676758 3.66267578 9.59676758 3.60546875 11.16601562 C3.57066406 12.24560547 3.53585937 13.32519531 3.5 14.4375 C3.43128385 16.56133798 3.35856667 18.68505147 3.28125 20.80859375 C3.25095703 21.75532959 3.22066406 22.70206543 3.18945312 23.67749023 C3 26 3 26 2 28 C1.34 28 0.68 28 0 28 C0 18.76 0 9.52 0 0 Z " fill="#BEBFC3" transform="translate(347,29)"/>
<path d="M0 0 C0.33 0 0.66 0 1 0 C1.33 5.61 1.66 11.22 2 17 C2.33 17 2.66 17 3 17 C3.0871142 21.08319884 3.14043048 25.16615864 3.1875 29.25 C3.22520508 30.98830078 3.22520508 30.98830078 3.26367188 32.76171875 C3.27817383 34.43427734 3.27817383 34.43427734 3.29296875 36.140625 C3.3086792 37.16704102 3.32438965 38.19345703 3.34057617 39.25097656 C3 42 3 42 0 46 C0 30.82 0 15.64 0 0 Z " fill="#D7DDE5" transform="translate(265,30)"/>
<path d="M0 0 C0.66 0 1.32 0 2 0 C2.17036774 4.17652063 2.3305635 8.35328402 2.48217773 12.53051758 C2.53486297 13.94533242 2.59011336 15.36005456 2.64819336 16.7746582 C3.42551463 35.81564966 3.42551463 35.81564966 2 44 C1.34 44.66 0.68 45.32 0 46 C0 30.82 0 15.64 0 0 Z " fill="#DDE3EC" transform="translate(326,30)"/>
<path d="M0 0 C1.65 0 3.3 0 5 0 C5.103125 1.27875 5.20625 2.5575 5.3125 3.875 C5.79404617 8.32057838 6.93880735 12.31322145 8.30078125 16.55859375 C9.29491582 20.02973401 9.6675453 23.40948924 10 27 C9.01 26.34 8.02 25.68 7 25 C6.70703125 22.6171875 6.70703125 22.6171875 6.8125 19.875 C6.85310547 18.50988281 6.85310547 18.50988281 6.89453125 17.1171875 C6.92933594 16.41851562 6.96414062 15.71984375 7 15 C6.01 15 5.02 15 4 15 C4 18.96 4 22.92 4 27 C3.67 27 3.34 27 3 27 C2.14304033 21.11599345 1.87460766 15.44090708 1.9375 9.5 C1.94201172 8.67757812 1.94652344 7.85515625 1.95117188 7.0078125 C1.96281511 5.00517604 1.98074444 3.00257773 2 1 C1.34 0.67 0.68 0.34 0 0 Z " fill="#3B0707" transform="translate(184,29)"/>
<path d="M0 0 C0.33 0 0.66 0 1 0 C1.02929981 3.83331699 1.04689897 7.66660471 1.0625 11.5 C1.07087891 12.57765625 1.07925781 13.6553125 1.08789062 14.765625 C1.10577749 20.63251745 0.8023789 26.19455264 0 32 C-0.24504582 35.33071983 -0.40620844 38.66407187 -0.5625 42 C-0.60568359 42.87011719 -0.64886719 43.74023438 -0.69335938 44.63671875 C-0.79824218 46.75768219 -0.89950075 48.87882433 -1 51 C-6.68493649 42.47259527 -2.52841535 24.9942646 -1.5 15 C-1.35475667 13.53132025 -1.21022279 12.06257016 -1.06640625 10.59375 C-0.71905729 7.06165668 -0.36230986 3.53059399 0 0 Z " fill="#862325" transform="translate(155,32)"/>
<path d="M0 0 C16.5 0 33 0 50 0 C50 0.33 50 0.66 50 1 C39.11 1 28.22 1 17 1 C17 4.3 17 7.6 17 11 C16.01 12.485 16.01 12.485 15 14 C14.61500109 15.65549531 14.27206865 17.3222433 14 19 C13.67 19 13.34 19 13 19 C13.495 10.09 13.495 10.09 14 1 C9.38 1 4.76 1 0 1 C0 0.67 0 0.34 0 0 Z " fill="#7E5154" transform="translate(213,29)"/>
<path d="M0 0 C0.33 0 0.66 0 1 0 C1.02886984 3.97915159 1.04675406 7.95827653 1.0625 11.9375 C1.07087891 13.07380859 1.07925781 14.21011719 1.08789062 15.38085938 C1.09111328 16.46044922 1.09433594 17.54003906 1.09765625 18.65234375 C1.10289307 19.65257568 1.10812988 20.65280762 1.11352539 21.68334961 C1 24 1 24 0 25 C-0.23287008 26.68183948 -0.41264166 28.3712416 -0.5625 30.0625 C-0.68818359 31.44115234 -0.68818359 31.44115234 -0.81640625 32.84765625 C-0.87699219 33.55792969 -0.93757813 34.26820312 -1 35 C-1.33 35 -1.66 35 -2 35 C-2 24.11 -2 13.22 -2 2 C-3.32 1.67 -4.64 1.34 -6 1 C-4.7934375 1.0309375 -4.7934375 1.0309375 -3.5625 1.0625 C-1.06645115 1.29633621 -1.06645115 1.29633621 0 0 Z " fill="#BEC1C8" transform="translate(349,72)"/>
<path d="M0 0 C0.33 0 0.66 0 1 0 C1.33 19.14 1.66 38.28 2 58 C6.26272499 59.70509 9.51311093 60.4721307 14 61 C14 61.33 14 61.66 14 62 C11.85423363 62.02685938 9.70837355 62.04633088 7.5625 62.0625 C6.36753906 62.07410156 5.17257813 62.08570313 3.94140625 62.09765625 C1 62 1 62 0 61 C-0.09391296 59.09756238 -0.11743658 57.19161541 -0.11352539 55.28686523 C-0.11344986 54.0656749 -0.11337433 52.84448456 -0.11329651 51.58628845 C-0.10818911 50.24372314 -0.10297311 48.90115825 -0.09765625 47.55859375 C-0.09579199 46.19238842 -0.09436813 44.82618243 -0.09336853 43.4599762 C-0.08954394 39.85798305 -0.07971417 36.25603 -0.06866455 32.65405273 C-0.05844916 28.98096255 -0.05387064 25.30786591 -0.04882812 21.63476562 C-0.03809184 14.42315877 -0.02101614 7.211585 0 0 Z " fill="#1E0000" transform="translate(135,30)"/>
<path d="M0 0 C7.1661796 -1.06632752 14.86114304 0.02155473 22.0625 0.6875 C22.78832275 0.74059326 23.51414551 0.79368652 24.26196289 0.84838867 C28.020279 1.25532328 29.76680055 1.77369135 32.51171875 4.4375 C34 7 34 7 33.75 9.3125 C33.5025 9.869375 33.255 10.42625 33 11 C31.0625 10.25 31.0625 10.25 29 9 C28.87625 8.34 28.7525 7.68 28.625 7 C28.41875 6.34 28.2125 5.68 28 5 C22.21609088 2.14793447 15.90700064 2.77880918 9.625 2.875 C7.94857422 2.88853516 7.94857422 2.88853516 6.23828125 2.90234375 C3.49196538 2.92581654 0.74609528 2.95865272 -2 3 C-1.34 2.01 -0.68 1.02 0 0 Z " fill="#932127" transform="translate(78,29)"/>
<path d="M0 0 C1.65 0.33 3.3 0.66 5 1 C5.144375 1.763125 5.28875 2.52625 5.4375 3.3125 C5.9632594 6.08172908 5.9632594 6.08172908 7 9 C7.06740865 10.56118428 7.08514456 12.1250252 7.0625 13.6875 C7.05347656 14.49574219 7.04445313 15.30398437 7.03515625 16.13671875 C7.02355469 16.75160156 7.01195312 17.36648437 7 18 C5.68 17.67 4.36 17.34 3 17 C2.95101563 16.21753906 2.90203125 15.43507813 2.8515625 14.62890625 C2.77679688 13.61699219 2.70203125 12.60507813 2.625 11.5625 C2.55539062 10.55316406 2.48578125 9.54382813 2.4140625 8.50390625 C2.27742188 7.67761719 2.14078125 6.85132812 2 6 C-0.9615696 4.5192152 -3.83506295 4.64685963 -7.125 4.4375 C-8.40632813 4.35371094 -9.68765625 4.26992187 -11.0078125 4.18359375 C-12.48894531 4.09271484 -12.48894531 4.09271484 -14 4 C-14 3.67 -14 3.34 -14 3 C-9.05 3 -4.1 3 1 3 C0.67 2.01 0.34 1.02 0 0 Z " fill="#989393" transform="translate(298,73)"/>
<path d="M0 0 C2.78184658 1.61526575 3.85187303 2.48155561 4.75 5.625 C5.05709887 9.77083477 5.0629873 13.84283809 5 18 C-0.61 18 -6.22 18 -12 18 C-12.33 18.66 -12.66 19.32 -13 20 C-13.33 19.34 -13.66 18.68 -14 18 C-14.99 17.67 -15.98 17.34 -17 17 C-17.33 14.69 -17.66 12.38 -18 10 C-16.35 10 -14.7 10 -13 10 C-13 12.31 -13 14.62 -13 17 C-7.39 17 -1.78 17 4 17 C3.71125 14.9375 3.4225 12.875 3.125 10.75 C2.96257812 9.58984375 2.80015625 8.4296875 2.6328125 7.234375 C2.08179569 4.41806687 1.44203518 2.44782443 0 0 Z " fill="#746E6A" transform="translate(318,36)"/>
<path d="M0 0 C0.33 0 0.66 0 1 0 C1.19272088 12.35554993 0.59950448 24.66232525 0 37 C-1.32 37 -2.64 37 -4 37 C-3.67 36.01 -3.34 35.02 -3 34 C-2.91760831 32.15389468 -2.89256641 30.30494836 -2.90234375 28.45703125 C-2.90556641 27.38388672 -2.90878906 26.31074219 -2.91210938 25.20507812 C-2.92048828 24.08552734 -2.92886719 22.96597656 -2.9375 21.8125 C-2.94426758 20.11577148 -2.94426758 20.11577148 -2.95117188 18.38476562 C-2.96296502 15.58979073 -2.9794235 12.7949218 -3 10 C-2.34 10 -1.68 10 -1 10 C-0.67 6.7 -0.34 3.4 0 0 Z " fill="#9B0C0F" transform="translate(116,32)"/>
<path d="M0 0 C2.18252519 3.55092078 2.31804476 6.57632806 2.44921875 10.69921875 C2.49240234 11.99021484 2.53558594 13.28121094 2.58007812 14.61132812 C2.59756104 15.2797876 2.61504395 15.94824707 2.63305664 16.63696289 C2.68760418 18.69142381 2.75773167 20.74492463 2.83007812 22.79882812 C3.05557288 30.18100875 3.05557288 30.18100875 3 33 C2 34 2 34 -0.50390625 34.09765625 C-1.51324219 34.08605469 -2.52257812 34.07445312 -3.5625 34.0625 C-4.57441406 34.05347656 -5.58632812 34.04445312 -6.62890625 34.03515625 C-7.41136719 34.02355469 -8.19382813 34.01195312 -9 34 C-9 33.67 -9 33.34 -9 33 C-6.69 33 -4.38 33 -2 33 C-0.35197475 28.67179527 0.23933471 25.13014416 0.1953125 20.5078125 C0.18886719 19.30898437 0.18242187 18.11015625 0.17578125 16.875 C0.15902344 15.6375 0.14226562 14.4 0.125 13.125 C0.11597656 11.86429688 0.10695312 10.60359375 0.09765625 9.3046875 C0.07415808 6.2029296 0.04130334 3.10156348 0 0 Z " fill="#BC2025" transform="translate(186,72)"/>
<path d="M0 0 C2.75059381 -0.08107646 5.49879021 -0.14052813 8.25 -0.1875 C9.02730469 -0.21263672 9.80460938 -0.23777344 10.60546875 -0.26367188 C16.42997175 -0.33834499 16.42997175 -0.33834499 19.546875 1.51171875 C20.02640625 2.00285156 20.5059375 2.49398438 21 3 C21.66 2.34 22.32 1.68 23 1 C22.67 4.96 22.34 8.92 22 13 C21.01 13.33 20.02 13.66 19 14 C18.80083984 12.82630859 18.80083984 12.82630859 18.59765625 11.62890625 C18.33275391 10.11103516 18.33275391 10.11103516 18.0625 8.5625 C17.88847656 7.55316406 17.71445313 6.54382812 17.53515625 5.50390625 C17.25248903 3.0712562 17.25248903 3.0712562 16 2 C13.47403741 1.76346477 10.96892793 1.57826308 8.4375 1.4375 C7.72658203 1.39431641 7.01566406 1.35113281 6.28320312 1.30664062 C4.52238088 1.20028223 2.7612168 1.09961154 1 1 C1 3.64 1 6.28 1 9 C0.67 9 0.34 9 0 9 C0 6.03 0 3.06 0 0 Z " fill="#7E1617" transform="translate(189,29)"/>
<path d="M0 0 C2.30982207 2.30982207 2.32263854 2.94670438 2.6328125 6.0859375 C2.7167627 6.92552002 2.80071289 7.76510254 2.88720703 8.63012695 C2.96567871 9.53593506 3.04415039 10.44174316 3.125 11.375 C3.20991699 12.30078857 3.29483398 13.22657715 3.38232422 14.18041992 C4.19041982 23.79057897 4.18628891 33.36472385 4 43 C3.67 43 3.34 43 3 43 C0.74890704 28.72850774 0.38938248 14.4229802 0 0 Z " fill="#3E0E0F" transform="translate(188,64)"/>
<path d="M0 0 C0.33 0 0.66 0 1 0 C1 6.6 1 13.2 1 20 C0.01 20.33 -0.98 20.66 -2 21 C-2.103125 22.27875 -2.20625 23.5575 -2.3125 24.875 C-2.48828125 27.0546875 -2.48828125 27.0546875 -3 29 C-3.99 29.66 -4.98 30.32 -6 31 C-5.73445312 29.85144531 -5.46890625 28.70289062 -5.1953125 27.51953125 C-3.10747858 18.37687098 -1.24885466 9.30068073 0 0 Z " fill="#1C0303" transform="translate(228,35)"/>
<path d="M0 0 C4.95 0 9.9 0 15 0 C15.33 0.66 15.66 1.32 16 2 C11.38 2 6.76 2 2 2 C2.144375 2.99 2.28875 3.98 2.4375 5 C2.84139831 7.78746719 3.1817664 10.57656487 3.5 13.375 C3.60095071 16.80223661 3.60095071 16.80223661 5 18 C5.23192865 19.51469448 5.41215238 21.03754562 5.5625 22.5625 C5.64628906 23.38878906 5.73007813 24.21507813 5.81640625 25.06640625 C5.90728516 26.02353516 5.90728516 26.02353516 6 27 C5.34 26.67 4.68 26.34 4 26 C3.18021727 23.51372463 2.491626 21.09993315 1.875 18.5625 C1.69614258 17.84126953 1.51728516 17.12003906 1.33300781 16.37695312 C0.02539955 10.80280591 -0.35848406 5.73574502 0 0 Z " fill="#A3282C" transform="translate(190,30)"/>
<path d="M0 0 C0.99 0.33 1.98 0.66 3 1 C2.67 5.62 2.34 10.24 2 15 C1.01 15.33 0.02 15.66 -1 16 C-2.5516502 14.4483498 -2.1694916 12.96270239 -2.1875 10.8125 C-2.15596429 6.86422854 -1.51112262 3.68336139 0 0 Z " fill="#FAEDDF" transform="translate(340,73)"/>
<path d="M0 0 C2.24808254 3.37212381 3.05160443 6.2874961 4.125 10.1875 C4.30675781 10.84169922 4.48851562 11.49589844 4.67578125 12.16992188 C5.12199044 13.77862343 5.56164215 15.38914131 6 17 C5.34 17 4.68 17 4 17 C4 16.34 4 15.68 4 15 C3.34 15 2.68 15 2 15 C1.67 17.31 1.34 19.62 1 22 C0.67 22 0.34 22 0 22 C0 14.74 0 7.48 0 0 Z " fill="#231E17" transform="translate(282,85)"/>
<path d="M0 0 C-0.875 4.75 -0.875 4.75 -2 7 C-2.66 7 -3.32 7 -4 7 C-4.33 6.01 -4.66 5.02 -5 4 C-5.144375 4.5775 -5.28875 5.155 -5.4375 5.75 C-6.21875 8.875 -6.21875 8.875 -7 12 C-7.99 12 -8.98 12 -10 12 C-10.33 12.66 -10.66 13.32 -11 14 C-10.59579069 8.34106967 -8.79663015 5.97742206 -5 2 C-2 0 -2 0 0 0 Z " fill="#ACAFB4" transform="translate(295,30)"/>
<path d="M0 0 C0.69738281 0.00902344 1.39476562 0.01804687 2.11328125 0.02734375 C3.82566958 0.05080112 5.53788004 0.08666896 7.25 0.125 C7.25 0.455 7.25 0.785 7.25 1.125 C6.28578125 1.17398437 5.3215625 1.22296875 4.328125 1.2734375 C3.06484375 1.34820313 1.8015625 1.42296875 0.5 1.5 C-1.37945312 1.60441406 -1.37945312 1.60441406 -3.296875 1.7109375 C-6.97160565 1.9545151 -6.97160565 1.9545151 -10.75 4.125 C-10.75 7.425 -10.75 10.725 -10.75 14.125 C-11.74 14.125 -12.73 14.125 -13.75 14.125 C-14.08 12.145 -14.41 10.165 -14.75 8.125 C-13.76 8.455 -12.77 8.785 -11.75 9.125 C-11.75 6.815 -11.75 4.505 -11.75 2.125 C-8.00764681 -0.32489101 -4.30774581 -0.10586143 0 0 Z " fill="#380707" transform="translate(126.75,27.875)"/>
<path d="M0 0 C4.29 0 8.58 0 13 0 C13 1.65 13 3.3 13 5 C12.67 4.01 12.34 3.02 12 2 C10.68 2 9.36 2 8 2 C7.67 3.32 7.34 4.64 7 6 C4.49642139 5.1654738 2.33214148 4.20628008 0 3 C0 2.01 0 1.02 0 0 Z " fill="#F5F0EF" transform="translate(248,57)"/>
<path d="M0 0 C0.33 0 0.66 0 1 0 C1 9.24 1 18.48 1 28 C0.67 28 0.34 28 0 28 C-0.33 25.03 -0.66 22.06 -1 19 C-1.66 19 -2.32 19 -3 19 C-2.01 12.73 -1.02 6.46 0 0 Z " fill="#1B1D1C" transform="translate(324,79)"/>
<path d="M0 0 C0.33 0 0.66 0 1 0 C1.19124719 4.78117979 1.20196849 8.69180078 -1 13 C-3.27937941 14.86392602 -5.24387506 15.79117327 -8 17 C-8.99 16.67 -9.98 16.34 -11 16 C-10.236875 15.401875 -9.47375 14.80375 -8.6875 14.1875 C-4.83100398 11.04849161 -2.78046051 9.13579881 -1.3125 4.3125 C-1.06113281 3.50425781 -0.80976562 2.69601563 -0.55078125 1.86328125 C-0.36902344 1.24839844 -0.18726562 0.63351563 0 0 Z " fill="#B32429" transform="translate(113,59)"/>
<path d="M0 0 C0.33 1.32 0.66 2.64 1 4 C1.66 4 2.32 4 3 4 C3.19412181 5.47831221 3.38012131 6.95769316 3.5625 8.4375 C3.66691406 9.26121094 3.77132812 10.08492187 3.87890625 10.93359375 C3.91886719 11.61550781 3.95882812 12.29742187 4 13 C3.67 13.33 3.34 13.66 3 14 C2.76712992 15.68183948 2.58735834 17.3712416 2.4375 19.0625 C2.31181641 20.44115234 2.31181641 20.44115234 2.18359375 21.84765625 C2.12300781 22.55792969 2.06242188 23.26820312 2 24 C1.67 24 1.34 24 1 24 C0.67 16.08 0.34 8.16 0 0 Z " fill="#D7DEE9" transform="translate(230,36)"/>
<path d="M0 0 C1.20628008 2.33214148 2.1654738 4.49642139 3 7 C7.62 7.66 12.24 8.32 17 9 C17 9.33 17 9.66 17 10 C11.72 10 6.44 10 1 10 C-0.60725635 6.78548731 -0.05748185 3.56387464 0 0 Z " fill="#791E24" transform="translate(174,98)"/>
<path d="M0 0 C0.33 0 0.66 0 1 0 C1.22171552 2.60365928 1.42784859 5.20696493 1.625 7.8125 C1.68945312 8.55048828 1.75390625 9.28847656 1.8203125 10.04882812 C2.2265625 15.66015625 2.2265625 15.66015625 0 19 C0 17.68 0 16.36 0 15 C-0.66 15 -1.32 15 -2 15 C-1.85973717 12.68715544 -1.71264442 10.37472409 -1.5625 8.0625 C-1.48128906 6.77472656 -1.40007812 5.48695312 -1.31640625 4.16015625 C-1 1 -1 1 0 0 Z " fill="#E3E9F1" transform="translate(233,49)"/>
<path d="M0 0 C0.66 0 1.32 0 2 0 C2.48198463 1.24891614 2.96045677 2.49918808 3.4375 3.75 C3.83775391 4.79414062 3.83775391 4.79414062 4.24609375 5.859375 C4.96146693 7.89059003 5.51365652 9.9035291 6 12 C7.32 12.33 8.64 12.66 10 13 C9.34 13.66 8.68 14.32 8 15 C2.97254491 11.7880148 0.67020274 7.61795468 -1 2 C-0.67 1.34 -0.34 0.68 0 0 Z " fill="#BCC1C9" transform="translate(286,55)"/>
<path d="M0 0 C0.66 0 1.32 0 2 0 C2.96070434 2.88211302 3.10581883 4.69850044 3.0625 7.6875 C3.05347656 8.49574219 3.04445313 9.30398437 3.03515625 10.13671875 C3.02355469 10.75160156 3.01195312 11.36648437 3 12 C2.01 12 1.02 12 0 12 C0 8.04 0 4.08 0 0 Z " fill="#191615" transform="translate(302,79)"/>
<path d="M0 0 C2.3125 0.1875 2.3125 0.1875 5 1 C6.8125 3.5625 6.8125 3.5625 8 6 C6.25 6.75 6.25 6.75 4 7 C1.75 5.25 1.75 5.25 0 3 C0 2.01 0 1.02 0 0 Z " fill="#DBCFCA" transform="translate(304,56)"/>
<path d="M0 0 C3 2 3 2 3.51171875 4.1640625 C3.56972656 4.97617188 3.62773437 5.78828125 3.6875 6.625 C3.75324219 7.44226563 3.81898438 8.25953125 3.88671875 9.1015625 C3.92410156 9.72804688 3.96148437 10.35453125 4 11 C2.68 10.67 1.36 10.34 0 10 C0 6.7 0 3.4 0 0 Z " fill="#D3E0E8" transform="translate(231,96)"/>
<path d="M0 0 C0.33 0 0.66 0 1 0 C1 1.98 1 3.96 1 6 C1.66 6 2.32 6 3 6 C3 7.98 3 9.96 3 12 C2.01 12.495 2.01 12.495 1 13 C1 12.01 1 11.02 1 10 C-0.65 10 -2.3 10 -4 10 C-4 9.01 -4 8.02 -4 7 C-2.68 7.66 -1.36 8.32 0 9 C0 6.03 0 3.06 0 0 Z " fill="#D1CFCD" transform="translate(305,82)"/>
<path d="M0 0 C0.99 0 1.98 0 3 0 C3 3.3 3 6.6 3 10 C2.01 10 1.02 10 0 10 C0 6.7 0 3.4 0 0 Z " fill="#580303" transform="translate(93,48)"/>
<path d="M0 0 C2.125 0.375 2.125 0.375 4 1 C3.01 1.66 2.02 2.32 1 3 C0.49368413 5.13048442 0.49368413 5.13048442 0.4375 7.5 C0.20754717 11.79245283 0.20754717 11.79245283 -2 14 C-2.05389087 12.04196493 -2.09274217 10.08351091 -2.125 8.125 C-2.14820312 7.03445312 -2.17140625 5.94390625 -2.1953125 4.8203125 C-2 2 -2 2 0 0 Z " fill="#AE232A" transform="translate(119,30)"/>
<path d="M0 0 C4 0 4 0 6.3125 2.25 C8 5 8 5 7.75 7.3125 C7.5025 7.869375 7.255 8.42625 7 9 C5.68 8.34 4.36 7.68 3 7 C3 5.02 3 3.04 3 1 C2.01 0.67 1.02 0.34 0 0 Z " fill="#871C20" transform="translate(104,31)"/>
<path d="M0 0 C0.66 0.33 1.32 0.66 2 1 C-0.39255681 4.58883522 -1.37988466 4.66905472 -5.4375 5.6875 C-6.40558594 5.93886719 -7.37367187 6.19023438 -8.37109375 6.44921875 C-11 7 -11 7 -14 7 C-14 6.34 -14 5.68 -14 5 C-13.07316406 4.72285156 -12.14632812 4.44570312 -11.19140625 4.16015625 C-9.99386719 3.79792969 -8.79632813 3.43570313 -7.5625 3.0625 C-6.36753906 2.70285156 -5.17257813 2.34320313 -3.94140625 1.97265625 C-1.14132455 1.29110858 -1.14132455 1.29110858 0 0 Z " fill="#41080A" transform="translate(108,73)"/>
<path d="M0 0 C0.33 0 0.66 0 1 0 C1.02692484 2.29160319 1.04636124 4.58329546 1.0625 6.875 C1.07410156 8.15117188 1.08570312 9.42734375 1.09765625 10.7421875 C1 14 1 14 0 16 C-0.66 16 -1.32 16 -2 16 C-2.33 14.02 -2.66 12.04 -3 10 C-2.34 10 -1.68 10 -1 10 C-0.67 6.7 -0.34 3.4 0 0 Z " fill="#8C1415" transform="translate(116,32)"/>
<path d="M0 0 C0.99 0 1.98 0 3 0 C2.84660156 0.66386719 2.69320312 1.32773437 2.53515625 2.01171875 C1.89226979 5.60155922 1.64966009 9.17795419 1.4375 12.8125 C1.39431641 13.50537109 1.35113281 14.19824219 1.30664062 14.91210938 C1.20138547 16.60788686 1.10027137 18.30392052 1 20 C0.67 20 0.34 20 0 20 C0 13.4 0 6.8 0 0 Z " fill="#120102" transform="translate(188,44)"/>
<path d="M0 0 C1.83979073 2.7596861 2.48323221 4.29741882 3.1875 7.4375 C3.45626953 8.58025391 3.45626953 8.58025391 3.73046875 9.74609375 C4.0154963 12.12958496 3.72875415 13.73104204 3 16 C0.14206684 13.14206684 0.59200059 10.85334416 0.375 6.875 C0.30023438 5.59367187 0.22546875 4.31234375 0.1484375 2.9921875 C0.09945312 2.00476562 0.05046875 1.01734375 0 0 Z " fill="#400B0B" transform="translate(190,40)"/>
<path d="M0 0 C0.99 0 1.98 0 3 0 C3.33 0.99 3.66 1.98 4 3 C-0.75 7 -0.75 7 -3 7 C-2.67 5.02 -2.34 3.04 -2 1 C-1.34 1 -0.68 1 0 1 C0 0.67 0 0.34 0 0 Z " fill="#E3DAD1" transform="translate(315,99)"/>
<path d="M0 0 C2 1 2 1 2.8515625 3.06640625 C3.10679687 3.89011719 3.36203125 4.71382813 3.625 5.5625 C3.88539063 6.38878906 4.14578125 7.21507813 4.4140625 8.06640625 C4.60742188 8.70449219 4.80078125 9.34257813 5 10 C4.34 10 3.68 10 3 10 C3 9.34 3 8.68 3 8 C2.01 7.67 1.02 7.34 0 7 C0 4.69 0 2.38 0 0 Z " fill="#2E2E2F" transform="translate(283,92)"/>
<path d="M0 0 C-0.33 2.64 -0.66 5.28 -1 8 C-1.66 7.01 -2.32 6.02 -3 5 C-3.66 4.67 -4.32 4.34 -5 4 C-4.67 3.01 -4.34 2.02 -4 1 C-1 0 -1 0 0 0 Z " fill="#12120F" transform="translate(324,97)"/>
<path d="M0 0 C0.33 0.66 0.66 1.32 1 2 C-4.17578125 5.22265625 -4.17578125 5.22265625 -6 6 C-6.99 5.67 -7.98 5.34 -9 5 C-3.85714286 0.57142857 -3.85714286 0.57142857 0 0 Z " fill="#982731" transform="translate(111,70)"/>
<path d="M0 0 C1.32 0 2.64 0 4 0 C4 2.64 4 5.28 4 8 C3.34 8 2.68 8 2 8 C2 6.02 2 4.04 2 2 C1.34 2 0.68 2 0 2 C0 1.34 0 0.68 0 0 Z " fill="#DBDFE3" transform="translate(304,80)"/>
<path d="M0 0 C0.33 0 0.66 0 1 0 C2.19287411 3.87684087 3 6.91621923 3 11 C2.34 11 1.68 11 1 11 C-0.28317892 7.15046324 -0.06643637 4.05261865 0 0 Z " fill="#A62123" transform="translate(190,32)"/>
<path d="M0 0 C0.66 0 1.32 0 2 0 C1.125 4.75 1.125 4.75 0 7 C-0.66 7 -1.32 7 -2 7 C-2.125 4.625 -2.125 4.625 -2 2 C-1.34 1.34 -0.68 0.68 0 0 Z " fill="#C7C9CC" transform="translate(293,30)"/>
<path d="M0 0 C0.33 1.32 0.66 2.64 1 4 C0.01 4.33 -0.98 4.66 -2 5 C-4.6875 3.5625 -4.6875 3.5625 -7 2 C-4.50907189 0.75453595 -3.58919267 1.2232422 -1 2 C-0.67 1.34 -0.34 0.68 0 0 Z " fill="#D6D6E2" transform="translate(302,69)"/>
</svg>
